# xmcd CD database file
#
# Track frame offsets:
#	150
#	13302
#	26773
#	39067
#	52459
#	64162
#	77291
#	89806
#	101530
#	113439
#	124712
#	137115
#	150427
#	163386
#	177386
#	190829
#	216005
#	241873
#	268413
#	293881
#	304273
#	314805
#	325649
#
# Disc length: 4479 seconds
#
# Revision: 0
# Processed by: cddbd v1.5.1PL0 Copyright (c) Steve Scherf et al.
# Submitted via: CDex 1.50
#
DISCID=4f117d17
DTITLE=Sonny Stitt - Sax O' Bebob - CD1 - Everything's Cool
DYEAR=1900
DGENRE=Jazz
TTITLE0=One Bass Hit, Pt. I
TTITLE1=Oop-Bop-Sh'Bam
TTITLE2=That's Earl Brother
TTITLE3=Bebop In Pastel
TTITLE4=Fool's Fancy
TTITLE5=Bombay
TTITLE6=Ray's Idea
TTITLE7=Serenade To A Square
TTITLE8=Good Kick
TTITLE9=Seven Up
TTITLE10=Blues In Bebop
TTITLE11=Epistrophy
TTITLE12=52nd Street Theme
TTITLE13=Oop-Bop-Sh'Bam
TTITLE14=Royal Roost
TTITLE15=Boppin' A Riff
TTITLE16=Fat Boy
TTITLE17=Everything's Cool
TTITLE18=Webb City
TTITLE19=Stardust
TTITLE20=Third Song
TTITLE21=Body and Soul
TTITLE22=Ration And Proportion
EXTD=
EXTT0=
EXTT1=
EXTT2=
EXTT3=
EXTT4=
EXTT5=
EXTT6=
EXTT7=
EXTT8=
EXTT9=
EXTT10=
EXTT11=
EXTT12=
EXTT13=
EXTT14=
EXTT15=
EXTT16=
EXTT17=
EXTT18=
EXTT19=
EXTT20=
EXTT21=
EXTT22=
PLAYORDER=
